<svg xmlns="http://www.w3.org/2000/svg" xmlns:xlink="http://www.w3.org/1999/xlink" width="275.063" height="22.531" viewBox="0 0 275.063 22.531">
  <defs>
    <linearGradient id="linear-gradient" x1="0.028" y1="0.089" x2="0.981" y2="0.944" gradientUnits="objectBoundingBox">
      <stop offset="0" stop-color="#ff5858"/>
      <stop offset="0.749" stop-color="#f48829"/>
      <stop offset="1" stop-color="#f09819"/>
    </linearGradient>
  </defs>
  <path id="Interseção_4" data-name="Interseção 4" d="M32.2,48.8a18.283,18.283,0,0,1-4.4-2.617,12.815,12.815,0,0,1-3.188-3.812,10.873,10.873,0,0,1-1.226-5.32A8.731,8.731,0,0,1,25.922,30.5a9.507,9.507,0,0,1,6.984-2.516,8.591,8.591,0,0,1,2.3.32,20.13,20.13,0,0,0,2.422.508l.828.125.484,4.328q.047.359-.985-1.265a7.392,7.392,0,0,0-1.687-2.063,6.026,6.026,0,0,0-5.531-.374,5.083,5.083,0,0,0-1.906,1.391,8.556,8.556,0,0,0-1.75,5.687q0,5.312,2.328,8.047a29.862,29.862,0,0,0,7.656,5.828A41.667,41.667,0,0,1,32.2,48.8ZM63.344,32.875l-.422,9.187q-.093,2.219.617,2.547t2.32,1.031l-7.795.045q.074.036.107.049h-7.89a5.046,5.046,0,0,0,.828-.3q.641-.274.688-.743a8.793,8.793,0,0,0-.734-2.484q-.782-2.047-1.7-4.391h-4.7l-2.375,5.234q-.437.984.946,1.7a13.582,13.582,0,0,1,1.711.984H37.7q.547-.359,1.562-1.1a7.415,7.415,0,0,0,1.453-1.3,4.5,4.5,0,0,0,.641-.977c.062-.183.094-.274.094-.274l6.375-14.016L55.672,43.75s.1.175.312.524a2.183,2.183,0,0,0,.953.836l.851.437.061.031q.3-.155,1.143-.531,1.43-.64,1.586-3.031l.766-11.562q.093-1.64-.524-1.953a5.531,5.531,0,0,0-1.93-.422H64.5l5.547,14.89L76.2,28.078h5.188q.2,0-1.382.492t-1.587,1.383v.883q0,.663.016,1.132l.078,9.391q.015,3.094.453,3.125a9.416,9.416,0,0,1,2.36,1.141l-7.751.047q-.234,0,1.173-.484a1.9,1.9,0,0,0,1.39-1.985l-.094-9.609L69.718,49.985ZM44.969,37.11h4.126l-1.969-4.782Zm245.594,8.625a5.047,5.047,0,0,0,.828-.3q.641-.274.688-.743a8.794,8.794,0,0,0-.734-2.484q-.78-2.047-1.7-4.391h-4.7l-2.375,5.234q-.437.984.946,1.7a13.509,13.509,0,0,1,1.711.984h-7.234q.547-.359,1.562-1.1a7.433,7.433,0,0,0,1.453-1.3,4.466,4.466,0,0,0,.641-.977c.062-.183.094-.274.094-.274l6.376-14.016,7.844,15.687.312.524a2.188,2.188,0,0,0,.953.836l.851.437q.305.157.383.187ZM285.25,37.11h4.126l-1.969-4.782Zm-14.844,8.609.524-.211a3.647,3.647,0,0,0,.883-.492,2.267,2.267,0,0,0,.6-.906l.258-.625v-7.3h-7.25v7.3l.25.625a2.128,2.128,0,0,0,.609.906,3.334,3.334,0,0,0,.875.492l.532.211-3.578.015-3.562-.015.523-.211a3.647,3.647,0,0,0,.883-.492,2.207,2.207,0,0,0,.594-.906l.25-.625v-7.3h-.438a3.919,3.919,0,0,1-.875-.367,4.47,4.47,0,0,0-.875-.383l-1.875-.391H262.8V30.532l-.024-.4a4.832,4.832,0,0,0-.132-.851q-.14-.454-1.055-.836l-.914-.382h6.875l-.913.382q-.914.383-1.04.836a3.307,3.307,0,0,0-.156.851l-.016.4v4.515h7.25V30.532s-.008-.133-.023-.4a4.205,4.205,0,0,0-.148-.851q-.14-.454-1.055-.836l-.914-.382h6.891l-.922.382q-.922.383-1.031.836a3.306,3.306,0,0,0-.156.851l-.016.4V43.484l.243.625a2.073,2.073,0,0,0,.6.906,3.3,3.3,0,0,0,.883.492l.539.211-3.578.015Zm-29.25.015h-7.609a5.108,5.108,0,0,0,.828-.3q.64-.274.688-.743a8.861,8.861,0,0,0-.734-2.484q-.782-2.047-1.7-4.391h-4.7l-2.375,5.234q-.437.984.945,1.7a13.511,13.511,0,0,1,1.711.984h-7.234q.547-.359,1.562-1.1a7.469,7.469,0,0,0,1.453-1.3,4.451,4.451,0,0,0,.64-.977c.063-.183.094-.274.094-.274l6.376-14.016,7.844,15.687.312.524a2.193,2.193,0,0,0,.953.836l.852.437.236.119,1.194-.6a2.876,2.876,0,0,0,1-.734l.266-.359V29.813l-.125-.234c-.083-.157-.2-.359-.359-.609a1.968,1.968,0,0,0-1.023-.633l-.789-.274h6.969a6.318,6.318,0,0,0-.625.391,2.685,2.685,0,0,0-.609.578,2.59,2.59,0,0,0-.375.625l-.109.281V43.375h6.046l.532-.282a5.716,5.716,0,0,0,1.234-.968,13.363,13.363,0,0,0,1.828-2.524q1.126-1.851,1.125-1.851s-.15.546-.453,1.641-.573,1.958-.813,2.594a22.364,22.364,0,0,0-.75,2.352q-.375,1.4-.7,1.4Zm.282,0Zm-13.2-8.625h4.125l-1.968-4.782Zm-18.969,8.625a2.231,2.231,0,0,0,2.063-2.39,65.164,65.164,0,0,0-.2-10.461q-.46-3.086-.461-3.086l-.008-.031c-.005-.021-.013-.062-.023-.125h-3.312l-.617.313a3.967,3.967,0,0,0-1.337,1.437q-.749,1.141-.968,1.571l-.219.429,1.531-5.328h13.719l1.547,5.328-.234-.429q-.235-.431-.953-1.571a4.21,4.21,0,0,0-1.36-1.437l-.609-.313h-3.3a.376.376,0,0,0-.047.125V29.8s-.154,1.029-.461,3.086a61.52,61.52,0,0,0-.117,10.461,2.39,2.39,0,0,0,1.859,2.39Zm-12.687,0a5.046,5.046,0,0,0,.828-.3q.641-.274.688-.743a8.792,8.792,0,0,0-.734-2.484q-.782-2.047-1.7-4.391h-4.7l-2.375,5.234q-.437.984.946,1.7a13.511,13.511,0,0,1,1.711.984H184q.548-.359,1.563-1.1a7.432,7.432,0,0,0,1.453-1.3,4.5,4.5,0,0,0,.641-.977c.062-.183.094-.274.094-.274l6.375-14.016,7.844,15.687s.1.175.312.524a2.183,2.183,0,0,0,.953.836l.851.437q.305.157.383.187Zm-5.313-8.625h4.126l-1.969-4.782ZM167.5,45.734q-.2,0,1.211-.461t1.414-2.477V36.36h-.36a3.006,3.006,0,0,1-.742-.36,3.51,3.51,0,0,0-.726-.374l-1.547-.407h3.375V31.094a2.345,2.345,0,0,0-1.445-2.524q-1.446-.508-1.242-.508h11.734a1.418,1.418,0,0,1,1.008.453,3.411,3.411,0,0,1,.695.938,5.5,5.5,0,0,1,.484,2.39,3.7,3.7,0,0,1-.781,2.453,5.131,5.131,0,0,1-2.5,1.422,6.7,6.7,0,0,1,2.906,1.109,4.622,4.622,0,0,1,1.656,3.782,4.9,4.9,0,0,1-1.875,4.109,6.6,6.6,0,0,1-4.031,1.015Zm5.61-4.343q0,1.75.062,2.218a1.559,1.559,0,0,0,.235.7q.39.625,2.452.625,4.219,0,4.219-4.109,0-2.735-1.8-3.734a8.223,8.223,0,0,0-4.14-.751l-.313.016h-.718Zm.718-12.515-.718.047v6.3q1.578,0,2.312-.078a5.035,5.035,0,0,0,1.344-.328,2.739,2.739,0,0,0,2.078-2.766,2.89,2.89,0,0,0-1.327-2.625,5.573,5.573,0,0,0-2.922-.578Q174.641,28.844,173.828,28.876ZM141.016,45.734l1.312-.671a2.867,2.867,0,0,0,1-.734l.266-.359V29.813s-.045-.077-.133-.234-.206-.359-.352-.609a1.964,1.964,0,0,0-1.023-.633l-.788-.274h13.172l1.328,5.328s-.066-.143-.2-.429-.41-.81-.836-1.571a3.971,3.971,0,0,0-1.165-1.437l-.523-.313h-6.641v5.313h3.313l.109.008a1.64,1.64,0,0,0,.516-.164q.375-.142,1.023-1.313l.649-1.172a11.576,11.576,0,0,1-.117,1.625,11.448,11.448,0,0,0-.117,1.609,12.566,12.566,0,0,0,.117,1.734,12.564,12.564,0,0,1,.117,1.734l-.649-1.164q-.648-1.165-1.023-1.32a2.081,2.081,0,0,0-.516-.157h-3.422v7h6.157l.531-.282a5.694,5.694,0,0,0,1.234-.968A14.149,14.149,0,0,0,156.18,39.6l1.133-1.851-.454,1.641q-.452,1.64-.813,2.594a23.751,23.751,0,0,0-.758,2.352q-.382,1.4-.695,1.4Zm-19.031,0a14.664,14.664,0,0,0,2.328-1.039q.734-.446.734-3.523V32.61q0-3.047-.734-3.5a14.145,14.145,0,0,0-2.328-1.047h9.922a9.882,9.882,0,0,1,4.313.734,6.637,6.637,0,0,1,2.922,3.125,11.1,11.1,0,0,1,1.062,4.969,11.043,11.043,0,0,1-1.062,4.969A6.532,6.532,0,0,1,136.219,45a9.882,9.882,0,0,1-4.313.734Zm5.657-16.547V44.594a20.12,20.12,0,0,0,2.172.14,9.609,9.609,0,0,0,2.609-.3,5.111,5.111,0,0,0,1.906-.953q2.516-2,2.516-6.593t-2.516-6.578a5.654,5.654,0,0,0-1.906-.968,10.269,10.269,0,0,0-2.609-.3A20.12,20.12,0,0,0,127.641,29.188ZM101.625,44.953a6.6,6.6,0,0,1-2.563-2.2,9.755,9.755,0,0,1-1.578-5.734,11.954,11.954,0,0,1,.719-4.25,6.83,6.83,0,0,1,6.969-4.7,7.592,7.592,0,0,1,2.984.594,6.632,6.632,0,0,1,2.39,1.734,8.1,8.1,0,0,1,1.578,2.843,10.765,10.765,0,0,1,.579,3.547,11.273,11.273,0,0,1-.609,3.672,9.069,9.069,0,0,1-1.672,3.031,6.639,6.639,0,0,1-5.36,2.25A7.636,7.636,0,0,1,101.625,44.953Zm.843-14.609a6.591,6.591,0,0,0-1.391,2.718,15.65,15.65,0,0,0-.453,4.047,10.611,10.611,0,0,0,1.125,5.343,3.887,3.887,0,0,0,3.406,2.2,3.619,3.619,0,0,0,3.328-2.437,9.234,9.234,0,0,0,.719-2.437,16.254,16.254,0,0,0,.266-3.047,15.237,15.237,0,0,0-.359-3.359,7.658,7.658,0,0,0-1-2.485,3.624,3.624,0,0,0-3.094-1.75A3.315,3.315,0,0,0,102.469,30.344ZM87.922,45.734h-5.7l1.39-.671a2.979,2.979,0,0,0,1.031-.711,2.543,2.543,0,0,0,.282-.382V36.36h-.36a3.073,3.073,0,0,1-.726-.36,3.487,3.487,0,0,0-.726-.374l-1.532-.407h3.344V31.094a2.346,2.346,0,0,0-1.438-2.524q-1.436-.508-1.234-.508H93.984a1.418,1.418,0,0,1,1.008.453,3.411,3.411,0,0,1,.695.938,5.766,5.766,0,0,1,.485,2.39,11.579,11.579,0,0,1-.157,1.766,3.026,3.026,0,0,1-.547,1.469,7.853,7.853,0,0,1-2.148,1.828,7.356,7.356,0,0,1-3.086.672q-.516-.031-1.281-.016l-.328.016h-.7V43.97l.265.359a2.852,2.852,0,0,0,1.047.734l1.391.671ZM88.641,29.5l-.719.031v5.687q1.438,0,2.312-.062a6.01,6.01,0,0,0,1.328-.3,2.518,2.518,0,0,0,2.093-2.5,2.6,2.6,0,0,0-1.327-2.375,6.254,6.254,0,0,0-2.922-.516ZM58.172,45.734ZM155.8,33.391Z" transform="translate(-23.391 -27.985)" fill="url(#linear-gradient)"/>
</svg>
